<svg width="320" height="250" xmlns="http://www.w3.org/2000/svg">

 <g>
  <title>background</title>
  <rect fill="none" id="canvas_background" height="402" width="582" y="-1" x="-1"/>
 </g>
 <g>
  <title>Layer 1</title>
  <rect id="svg_1" height="204" width="276" y="23" x="21.5" stroke-width="1.5" stroke="#000" fill="#ffffff"/>
  <g id="layer1">
   <path fill="#ed2c2e" id="path2529" d="m126.5,245.34222c-35.51376,-2.11151 -71.16388,-6.80514 -98.39289,-12.95424c-6.57455,-1.48472 -7.48125,-1.99622 -9.8301,-5.54558c-4.36609,-6.5976 -8.43746,-23.62102 -10.40796,-43.51828c-2.64206,-26.67847 -1.61187,-108.08627 1.63656,-129.32412c0.21032,-1.375 0.87999,-6.21941 1.48817,-10.76537c1.99628,-14.9216 6.69257,-24.53803 12.77945,-26.16806c15.86774,-4.24929 50.33651,-9.72127 80.22677,-12.73614c24.83457,-2.50493 89.1557,-2.50549 114,-0.001c23.77499,2.39671 42.43295,5.05251 61.5,8.75403c15.63279,3.03482 16.09441,3.19743 20.11345,7.08551c3.38893,3.27851 4.47783,5.33138 6.18225,11.65522c5.06157,18.77968 7.17125,41.28615 7.89373,84.21154c0.89266,53.03684 -2.14774,91.58366 -8.41191,106.64809l-2.83368,6.81459l-11.97192,2.71356c-26.59858,6.02883 -61.27398,10.76104 -93.47192,12.75627c-14.78987,0.91649 -57.55951,1.14337 -70.5,0.37398zm-19.5,-78.34222l0,-50l21,0l21,0l0,-16.5l0,-16.5l-63,0l-63,0l0,16.5l0,16.5l21,0l21,0l0,49.33333c0,27.13334 0.3,49.63334 0.66667,50c0.36666,0.36667 9.81666,0.66667 21,0.66667l20.33333,0l0,-50zm146.55568,37.25c7.77,-20.82656 10.46158,-28.16121 14.58697,-39.75c2.15368,-6.05 4.52372,-12.35 5.26675,-14c0.74304,-1.65 2.13943,-5.475 3.1031,-8.5c0.96368,-3.025 2.09581,-5.95 2.51585,-6.5c0.42004,-0.55 1.22242,-2.575 1.78306,-4.5c1.1739,-4.03069 4.87838,-14.25764 11.52565,-31.81888c2.56462,-6.77539 4.80302,-13.95274 4.80302,-14.75124c0,-1.23014 -3.22596,-0.42995 -20.34927,-0.20059l-20.20919,0.27071l-1.21612,3.5c-1.63812,4.71453 -7.38849,23.31544 -10.82006,35c-1.5345,5.225 -3.60067,11.975 -4.59149,15c-0.99082,3.025 -3.21988,10.225 -4.95348,16c-5.57091,18.55794 -7.38121,24 -7.9836,24c-0.51545,0 -4.24585,-11.33769 -12.503,-38c-1.27748,-4.125 -3.5117,-11.325 -4.96492,-16c-1.45321,-4.675 -3.81682,-12.325 -5.25245,-17c-1.43564,-4.675 -3.64091,-11.65 -4.90061,-15.5l-2.29037,-7l-21.05276,-0.26989c-11.72693,-0.15033 -21.33291,-0.29861 -21.33291,0.19369c0,0.4861 1.88458,5.52778 3.84554,10.69012c1.96097,5.16234 4.40652,11.63608 5.43457,14.38608c5.88226,15.73497 7.2785,19.51543 9.04859,24.5c1.07422,3.025 2.39581,6.4 2.93688,7.5c0.54106,1.1 2.76545,6.95 4.94307,13c2.17763,6.05 5.3598,14.6 7.0715,19c1.7117,4.4 4.90195,12.95 7.08946,19c2.1875,6.05 4.58413,12.35 5.32582,14c0.7417,1.65 1.88658,4.6875 2.54418,6.75l1.19564,3.75l22.3219,0l22.3219,0l4.75678,-12.75zm-216.6605,-141.29447l1.21175,-4.04447l6.61096,0.29447c7.69735,-0.68759 6.44659,-0.54836 7.77969,3.79447c1.14722,3.73729 0.39504,3.82176 3.46267,4.08383l4.81532,0.02352l-3.92284,-10.80368c-2.15756,-5.94202 -4.3562,-11.70367 -4.88587,-12.80367c-0.52967,-1.1 -1.57168,-3.8 -2.31558,-6c-1.20667,-3.56859 -1.70302,-4 -4.6022,-4c-3.54372,0 -3.61602,0.12494 -9.54874,16.5c-1.29523,3.575 -3.28584,8.8625 -4.42358,11.75l-2.06861,5.25l3.33764,0c3.03362,0 3.44801,-0.3684 4.54939,-4.04447zm4.66367,-12.14096c1.61963,-5.103 3.20669,-8.00295 3.82885,-6.99628c0.36411,0.58915 1.30587,2.89604 2.0928,5.12644l1.43078,4.05527l-4.02303,0c-3.68173,0 -3.96418,-0.1854 -3.3294,-2.18543zm37.7916,13.34153c3.36354,-3.51079 3.43162,-8.60668 2.42019,-12.62432c-0.3865,-1.53531 -3.6188,-3.81605 -6.85745,-5.39413c-5.93006,-2.8895 -7.60777,-6.16037 -4.11782,-8.02814c1.54022,-0.8243 2.55135,-0.71084 4.05407,1.43234c1.75047,2.49653 4.84118,1.7117 6.63241,1.48752c1.60593,-0.20099 -2.13532,-6.77355 -4.42646,-7.99973c-5.47564,-2.93047 -12.49705,0.47723 -13.65037,6.62494c-1.03376,5.51042 1.41436,9.62282 6.99787,11.75519c3.38894,1.29424 4.84178,2.41803 5.24625,4.32844c1.13147,5.34417 -4.35121,7.57274 -6.62046,3.31604c-1.91556,-3.59323 -1.47255,-3.05425 -3.97666,-3.05425c-3.44075,0 -3.49985,-0.74359 -1.64572,5.42999c1.30092,4.33159 3.93781,5.50054 9.15661,5.5396c3.18256,0.02382 4.65328,-0.5858 6.78754,-2.81349zm38.12873,0.45563c3.06774,-3.06774 4.14918,-8.68052 2.4588,-12.76145c-0.95367,-2.30237 -2.68141,-3.73136 -6.61441,-5.47073c-4.2899,-1.89719 -5.32357,-2.81843 -5.32357,-4.74449c0,-3.29601 2.48744,-5.30534 4.5,-3.63506c0.825,0.68469 1.5,1.89468 1.5,2.68887c0,0.98529 0.87355,1.34346 2.75,1.12755c2.26649,-0.26079 2.70529,0.64479 2.4957,-2.81642c-0.32277,-5.33022 -8.14889,-8.72773 -13.30109,-5.97036c-2.40783,1.28863 -5.27807,3.13559 -4.94461,9.34398c0.21791,4.05711 4.25301,8.22208 7.74146,9.09763c3.92714,0.98565 5.25854,2.38546 5.25854,5.52875c0,5.52807 -5.73704,5.00005 -6.67947,1.28795c-0.42732,-1.68316 -1.14676,-1.72764 -3.89008,-1.72764c-1.88675,0 -3.43045,-0.08073 -3.43045,0.50543c0,1.59397 1.98727,5.14588 4.29928,7.68426c2.93132,3.21832 9.89638,3.14525 13.1799,-0.13827zm27.52082,-0.11173c0,-2.38889 0.71387,-2.5 -6,-2.5l-6,0l0,-5l0,-5l6,0c6.99402,0.14008 6,-0.11111 6,-2.5c0,-2.38889 1.1341,-2.5 -6,-2.5l-6,0l0,-4.5l0,-4.5l6,0c6.99402,0.14008 6,-0.11111 6,-2.5c0,-2.49123 1.36744,-2.5 -9.5,-2.5l-9.5,0l0,17l0,17l9.5,0c11.00751,0 9.5,-0.00877 9.5,-2.5zm24,0c0,-2.38889 0.85394,-2.5 -6,-2.5l-6,0l0,-5l0,-5l6,0c6.71387,0 6,-0.11111 6,-2.5c0,-2.38889 0.99402,-2.5 -6,-2.5l-6,0l0,-4.5l0,-4.5l6,0c7.27417,0 6,-0.11111 6,-2.5c0,-2.49123 1.36743,-2.78015 -9.5,-2.5l-9.5,0l0,17l0,17l9.5,0c10.58728,0 9.5,-0.00877 9.5,-2.5zm13.00414,-8.75l0.00413,-11.25l3.4546,5.5c1.90003,3.025 4.93567,8.08216 6.74587,11.23813c2.93916,5.12427 3.63894,5.73941 6.54126,5.75l3.25,0.01187l0,-17l0,-17l-2.96617,0l-2.96617,0l-0.28383,10.74097l-0.28383,10.74097l-6.96531,-10.74097c-6.52431,-10.06093 -7.17327,-10.74097 -10.25,-10.74097l-3.28469,0l0,17l0,17l3.5,0l3.5,0l0.00414,-11.25zm69.27122,7.98914c7.6295,-5.81931 8.65532,-18.48946 2.08572,-25.76122c-4.23993,-4.6931 -8.98999,-6.41889 -15.53409,-5.64384c-9.34557,1.10685 -14.82699,7.5032 -14.82699,17.30182c0,6.75468 2.84105,12.03521 8.32846,15.47976c4.80517,3.01628 15.12097,2.3044 19.9469,-1.37652zm-15.97681,-3.6471c-6.2863,-3.93421 -7.99804,-11.27164 -4.01122,-17.19416c4.55904,-6.77256 12.00046,-7.01662 17.15268,-1.7868c3.63393,3.68865 3.93982,8.05071 2.70795,11.7894c-2.49591,7.575 -9.03422,9.89783 -15.84941,7.19156zm33.71051,-4.34204l0.00906,-11.25l3.84031,6c2.11217,3.3 5.30501,8.3625 7.09519,11.25c2.89133,4.66363 3.63414,5.25 6.65063,5.25l3.39575,0l0,-17l0,-17l-3.5,0l-3.5,0l0,10.67602l0,10.67602l-3.25,-4.64172c-1.7875,-2.55295 -4.91805,-7.35716 -6.95679,-10.67602c-3.40698,-5.54625 -3.99336,-6.0343 -7.25,-6.0343l-3.54321,0l0,17l0,17l3.5,0l3.5,0l0.00906,-11.25z"/>
  </g>
 </g>
</svg>